<svg width="84" height="22" viewBox="0 0 84 22" fill="none" xmlns="http://www.w3.org/2000/svg">
<path d="M0.3 18L8.225 0.499999H10.7L18.65 18H16.025L8.95 1.9H9.95L2.875 18H0.3ZM3.675 13.625L4.35 11.625H14.2L14.925 13.625H3.675ZM30.8703 18L25.7453 11.55L27.7203 10.35L33.6953 18H30.8703ZM21.2703 18V4.75H23.6703V18H21.2703ZM22.9453 12.4V10.35H27.3203V12.4H22.9453ZM27.9203 11.65L25.6953 11.35L30.7703 4.75H33.3453L27.9203 11.65ZM36.2117 18V4.75H38.6117V15.9H45.8617V4.75H48.2617V18H36.2117ZM48.0867 21.075V17.875L48.6867 18H45.8617V15.9H50.3617V21.075H48.0867ZM53.4725 18V4.75H55.8725V14.4L63.9975 4.75H66.1725V18H63.7725V8.35L55.6725 18H53.4725ZM70.8309 18V4.75H73.2309V14.4L81.3559 4.75H83.5309V18H81.1309V8.35L73.0309 18H70.8309Z" fill="black"/>
</svg>
