<svg width="103" height="19" viewBox="0 0 103 19" fill="none" xmlns="http://www.w3.org/2000/svg">
<path d="M0.175 18V0.499999H12.525L12.5 3.8H3.25L4.175 2.875L4.2 18H0.175ZM9.4543 17.975L9.6543 14.775C9.7543 14.7917 9.8543 14.8083 9.9543 14.825C10.0543 14.825 10.146 14.825 10.2293 14.825C10.696 14.825 11.0626 14.6917 11.3293 14.425C11.596 14.1583 11.796 13.8 11.9293 13.35C12.0626 12.8833 12.1543 12.3583 12.2043 11.775C12.271 11.1917 12.321 10.5833 12.3543 9.95L12.5543 4.55H24.0543V18H20.1543V6.8L21.0293 7.75H15.1293L15.9543 6.75L15.7793 10.125C15.7293 11.325 15.6293 12.425 15.4793 13.425C15.346 14.425 15.121 15.2917 14.8043 16.025C14.4876 16.7417 14.0626 17.3 13.5293 17.7C12.996 18.0833 12.3126 18.275 11.4793 18.275C11.1793 18.275 10.8626 18.25 10.5293 18.2C10.196 18.15 9.83763 18.075 9.4543 17.975ZM35.8547 18V15.375L35.6047 14.8V10.1C35.6047 9.26667 35.3464 8.61667 34.8297 8.15C34.3297 7.68333 33.5547 7.45 32.5047 7.45C31.788 7.45 31.0797 7.56667 30.3797 7.8C29.6964 8.01667 29.113 8.31667 28.6297 8.7L27.2297 5.975C27.963 5.45833 28.8464 5.05833 29.8797 4.775C30.913 4.49167 31.963 4.35 33.0297 4.35C35.0797 4.35 36.6714 4.83333 37.8047 5.8C38.938 6.76667 39.5047 8.275 39.5047 10.325V18H35.8547ZM31.7547 18.2C30.7047 18.2 29.8047 18.025 29.0547 17.675C28.3047 17.3083 27.7297 16.8167 27.3297 16.2C26.9297 15.5833 26.7297 14.8917 26.7297 14.125C26.7297 13.325 26.9214 12.625 27.3047 12.025C27.7047 11.425 28.3297 10.9583 29.1797 10.625C30.0297 10.275 31.138 10.1 32.5047 10.1H36.0797V12.375H32.9297C32.013 12.375 31.3797 12.525 31.0297 12.825C30.6964 13.125 30.5297 13.5 30.5297 13.95C30.5297 14.45 30.7214 14.85 31.1047 15.15C31.5047 15.4333 32.0464 15.575 32.7297 15.575C33.3797 15.575 33.963 15.425 34.4797 15.125C34.9964 14.8083 35.3714 14.35 35.6047 13.75L36.2047 15.55C35.9214 16.4167 35.4047 17.075 34.6547 17.525C33.9047 17.975 32.938 18.2 31.7547 18.2ZM42.8926 18V4.55H49.7676C51.4509 4.55 52.7676 4.85833 53.7176 5.475C54.6676 6.075 55.1426 6.925 55.1426 8.025C55.1426 9.125 54.6926 9.99167 53.7926 10.625C52.9092 11.2417 51.7342 11.55 50.2676 11.55L50.6676 10.65C52.3009 10.65 53.5176 10.95 54.3176 11.55C55.1342 12.15 55.5426 13.025 55.5426 14.175C55.5426 15.3583 55.0926 16.2917 54.1926 16.975C53.2926 17.6583 51.9176 18 50.0676 18H42.8926ZM46.4676 15.35H49.7426C50.4592 15.35 50.9926 15.2333 51.3426 15C51.7092 14.75 51.8926 14.375 51.8926 13.875C51.8926 13.3583 51.7259 12.9833 51.3926 12.75C51.0592 12.5 50.5342 12.375 49.8176 12.375H46.4676V15.35ZM46.4676 10.075H49.4176C50.1009 10.075 50.6092 9.95 50.9426 9.7C51.2926 9.45 51.4676 9.09167 51.4676 8.625C51.4676 8.14167 51.2926 7.78333 50.9426 7.55C50.6092 7.31667 50.1009 7.2 49.4176 7.2H46.4676V10.075ZM58.4443 18V4.55H62.3193V9.8H68.1693V4.55H72.0693V18H68.1693V12.975H62.3193V18H58.4443ZM83.8527 18V15.375L83.6027 14.8V10.1C83.6027 9.26667 83.3444 8.61667 82.8277 8.15C82.3277 7.68333 81.5527 7.45 80.5027 7.45C79.7861 7.45 79.0777 7.56667 78.3777 7.8C77.6944 8.01667 77.1111 8.31667 76.6277 8.7L75.2277 5.975C75.9611 5.45833 76.8444 5.05833 77.8777 4.775C78.9111 4.49167 79.9611 4.35 81.0277 4.35C83.0777 4.35 84.6694 4.83333 85.8027 5.8C86.9361 6.76667 87.5027 8.275 87.5027 10.325V18H83.8527ZM79.7527 18.2C78.7027 18.2 77.8027 18.025 77.0527 17.675C76.3027 17.3083 75.7277 16.8167 75.3277 16.2C74.9277 15.5833 74.7277 14.8917 74.7277 14.125C74.7277 13.325 74.9194 12.625 75.3027 12.025C75.7027 11.425 76.3277 10.9583 77.1777 10.625C78.0277 10.275 79.1361 10.1 80.5027 10.1H84.0777V12.375H80.9277C80.0111 12.375 79.3777 12.525 79.0277 12.825C78.6944 13.125 78.5277 13.5 78.5277 13.95C78.5277 14.45 78.7194 14.85 79.1027 15.15C79.5027 15.4333 80.0444 15.575 80.7277 15.575C81.3777 15.575 81.9611 15.425 82.4777 15.125C82.9944 14.8083 83.3694 14.35 83.6027 13.75L84.2027 15.55C83.9194 16.4167 83.4027 17.075 82.6527 17.525C81.9027 17.975 80.9361 18.2 79.7527 18.2ZM99.3656 18V13.525L99.9156 14.15H96.1906C94.2573 14.15 92.7406 13.75 91.6406 12.95C90.5406 12.15 89.9906 11 89.9906 9.5C89.9906 7.9 90.5656 6.675 91.7156 5.825C92.8823 4.975 94.449 4.55 96.4156 4.55H102.841V18H99.3656ZM89.7906 18L93.3656 12.875H97.3406L93.9406 18H89.7906ZM99.3656 12.325V6.725L99.9156 7.725H96.4906C95.6906 7.725 95.0656 7.875 94.6156 8.175C94.1823 8.475 93.9656 8.95833 93.9656 9.625C93.9656 10.9083 94.7906 11.55 96.4406 11.55H99.9156L99.3656 12.325Z" fill="black"/>
</svg>
