<svg width="73" height="19" viewBox="0 0 73 19" fill="none" xmlns="http://www.w3.org/2000/svg">
<path d="M9.6 18.2C8.26667 18.2 7.025 17.975 5.875 17.525C4.74167 17.075 3.75833 16.45 2.925 15.65C2.09167 14.8333 1.44167 13.8833 0.975 12.8C0.508333 11.7167 0.275 10.5333 0.275 9.25C0.275 7.96667 0.508333 6.78333 0.975 5.7C1.44167 4.61667 2.09167 3.675 2.925 2.875C3.75833 2.05833 4.74167 1.425 5.875 0.974999C7.00833 0.524999 8.25 0.3 9.6 0.3C10.9333 0.3 12.1583 0.524999 13.275 0.974999C14.4083 1.40833 15.3917 2.03333 16.225 2.85C17.075 3.65 17.725 4.59167 18.175 5.675C18.6417 6.75833 18.875 7.95 18.875 9.25C18.875 10.55 18.6417 11.7417 18.175 12.825C17.725 13.9083 17.075 14.8583 16.225 15.675C15.3917 16.475 14.4083 17.1 13.275 17.55C12.1583 17.9833 10.9333 18.2 9.6 18.2ZM9.6 15.975C10.5667 15.975 11.4583 15.8083 12.275 15.475C13.1083 15.1417 13.825 14.675 14.425 14.075C15.0417 13.4583 15.5167 12.7417 15.85 11.925C16.2 11.1083 16.375 10.2167 16.375 9.25C16.375 8.28333 16.2 7.39167 15.85 6.575C15.5167 5.75833 15.0417 5.05 14.425 4.45C13.825 3.83333 13.1083 3.35833 12.275 3.025C11.4583 2.69167 10.5667 2.525 9.6 2.525C8.61667 2.525 7.70833 2.69167 6.875 3.025C6.05833 3.35833 5.34167 3.83333 4.725 4.45C4.10833 5.05 3.625 5.75833 3.275 6.575C2.94167 7.39167 2.775 8.28333 2.775 9.25C2.775 10.2167 2.94167 11.1083 3.275 11.925C3.625 12.7417 4.10833 13.4583 4.725 14.075C5.34167 14.675 6.05833 15.1417 6.875 15.475C7.70833 15.8083 8.61667 15.975 9.6 15.975ZM29.2303 18V4.75H31.6303V10.375H39.1803V4.75H41.5803V18H39.1803V12.45H31.6303V18H29.2303ZM54.3719 18V15.2L54.2469 14.675V9.9C54.2469 8.88333 53.9469 8.1 53.3469 7.55C52.7635 6.98333 51.8802 6.7 50.6969 6.7C49.9135 6.7 49.1469 6.83333 48.3969 7.1C47.6469 7.35 47.0135 7.69167 46.4969 8.125L45.4969 6.325C46.1802 5.775 46.9969 5.35833 47.9469 5.075C48.9135 4.775 49.9219 4.625 50.9719 4.625C52.7885 4.625 54.1885 5.06667 55.1719 5.95C56.1552 6.83333 56.6469 8.18333 56.6469 10V18H54.3719ZM50.0219 18.15C49.0385 18.15 48.1719 17.9833 47.4219 17.65C46.6885 17.3167 46.1219 16.8583 45.7219 16.275C45.3219 15.675 45.1219 15 45.1219 14.25C45.1219 13.5333 45.2885 12.8833 45.6219 12.3C45.9719 11.7167 46.5302 11.25 47.2969 10.9C48.0802 10.55 49.1302 10.375 50.4469 10.375H54.6469V12.1H50.5469C49.3469 12.1 48.5385 12.3 48.1219 12.7C47.7052 13.1 47.4969 13.5833 47.4969 14.15C47.4969 14.8 47.7552 15.325 48.2719 15.725C48.7885 16.1083 49.5052 16.3 50.4219 16.3C51.3219 16.3 52.1052 16.1 52.7719 15.7C53.4552 15.3 53.9469 14.7167 54.2469 13.95L54.7219 15.6C54.4052 16.3833 53.8469 17.0083 53.0469 17.475C52.2469 17.925 51.2385 18.15 50.0219 18.15ZM66.7436 18.15C65.3936 18.15 64.1852 17.8583 63.1186 17.275C62.0686 16.6917 61.2436 15.8917 60.6436 14.875C60.0436 13.8583 59.7436 12.6917 59.7436 11.375C59.7436 10.0583 60.0436 8.89167 60.6436 7.875C61.2436 6.85833 62.0686 6.06667 63.1186 5.5C64.1852 4.91667 65.3936 4.625 66.7436 4.625C67.9436 4.625 69.0102 4.86667 69.9436 5.35C70.8936 5.81667 71.6269 6.51667 72.1436 7.45L70.3186 8.625C69.8852 7.975 69.3519 7.5 68.7186 7.2C68.1019 6.88333 67.4352 6.725 66.7186 6.725C65.8519 6.725 65.0769 6.91667 64.3936 7.3C63.7102 7.68333 63.1686 8.225 62.7686 8.925C62.3686 9.60833 62.1686 10.425 62.1686 11.375C62.1686 12.325 62.3686 13.15 62.7686 13.85C63.1686 14.55 63.7102 15.0917 64.3936 15.475C65.0769 15.8583 65.8519 16.05 66.7186 16.05C67.4352 16.05 68.1019 15.9 68.7186 15.6C69.3519 15.2833 69.8852 14.8 70.3186 14.15L72.1436 15.3C71.6269 16.2167 70.8936 16.925 69.9436 17.425C69.0102 17.9083 67.9436 18.15 66.7436 18.15Z" fill="black"/>
</svg>
